<mxfile host="app.diagrams.net" modified="2024-01-17T13:58:32.319Z" agent="Mozilla/5.0 (Macintosh; Intel Mac OS X 10_15_7) AppleWebKit/605.1.15 (KHTML, like Gecko) Version/17.2.1 Safari/605.1.15" version="22.1.21" etag="2MEmhiiASJM3NhOYCoBp" type="github">
  <diagram name="PÃ¡gina-1" id="ZLr1WJbDhWqPUv8rurcU">
    <mxGraphModel>
      <root>
        <mxCell id="0" />
        <mxCell id="1" parent="0" />
      </root>
    </mxGraphModel>
  </diagram>
</mxfile>
